<svg width="40" height="40" viewBox="0 0 40 40" fill="none" xmlns="http://www.w3.org/2000/svg">
<g clip-path="url(#clip0_4_12)">
<path d="M34.6667 4H33.3333C29.6573 4 26.6667 6.99067 26.6667 10.6667V23.0147C25.3973 21.9653 23.7707 21.3333 22 21.3333C17.9573 21.3333 14.6667 24.6227 14.6667 28.6667C14.6667 32.7107 17.9573 36 22 36C26.0427 36 29.3333 32.7107 29.3333 28.6667V10.6667C29.3333 8.46133 31.128 6.66667 33.3333 6.66667H34.6667C35.404 6.66667 36 6.06933 36 5.33333C36 4.59733 35.404 4 34.6667 4ZM4 5.33333C4 4.59733 4.596 4 5.33333 4H20C20.7373 4 21.3333 4.59733 21.3333 5.33333C21.3333 6.06933 20.7373 6.66667 20 6.66667H5.33333C4.596 6.66667 4 6.06933 4 5.33333ZM4 13.3333C4 12.5973 4.596 12 5.33333 12H20C20.7373 12 21.3333 12.5973 21.3333 13.3333C21.3333 14.0693 20.7373 14.6667 20 14.6667H5.33333C4.596 14.6667 4 14.0693 4 13.3333ZM14.6667 21.3333C14.6667 22.0693 14.0707 22.6667 13.3333 22.6667H5.33333C4.596 22.6667 4 22.0693 4 21.3333C4 20.5973 4.596 20 5.33333 20H13.3333C14.0707 20 14.6667 20.5973 14.6667 21.3333Z" fill="#07870C"/>
</g>
<defs>
<clipPath id="clip0_4_12">
<rect width="40" height="40" fill="white"/>
</clipPath>
</defs>
</svg>
