<svg width="30" height="32" viewBox="0 0 30 32" fill="none" xmlns="http://www.w3.org/2000/svg">
<path d="M4.90861 0.0216358C2.24611 0.452886 0.333614 2.43414 0.071114 5.04664C-0.022636 5.90914 -0.022636 26.1716 0.064864 26.9529C0.152364 27.7154 0.283614 28.1654 0.602364 28.8279C1.68361 31.0966 4.26486 32.3779 6.72111 31.8654C7.64611 31.6716 7.78986 31.6029 11.0961 29.6904C11.5086 29.4466 13.3211 28.4029 15.1274 27.3591C16.9336 26.3216 20.2399 24.4154 22.4711 23.1216C24.7086 21.8341 26.6586 20.6904 26.8149 20.5904C27.2274 20.3091 27.8524 19.6904 28.1586 19.2654C29.7086 17.0966 29.5274 14.0966 27.7211 12.1779C27.5524 11.9966 27.2524 11.7216 27.0649 11.5779C26.8774 11.4341 24.5399 10.0529 21.8774 8.51539C19.2149 6.97789 16.1086 5.18414 14.9711 4.52789C13.8399 3.87789 12.1211 2.88414 11.1586 2.32789C7.81486 0.390386 7.81486 0.390386 6.97111 0.159136C6.53986 0.0403858 5.30236 -0.0408642 4.90861 0.0216358Z" fill="#427D44"/>
</svg>
