<svg width="40" height="40" viewBox="0 0 40 40" fill="none" xmlns="http://www.w3.org/2000/svg">
<g clip-path="url(#clip0_4_16)">

<path d="M23.9903 19.9547L31.1849 12.7595C31.652 12.229 31.8994 11.5408 31.8768 10.8347C31.8543 10.1286 31.5634 9.45754 31.0634 8.95797C30.5634 8.45841 29.8917 8.16783 29.1849 8.14528C28.4781 8.12274 27.7893 8.36993 27.2584 8.8366L20.0564 16.0245L12.8415 8.81437C12.583 8.55618 12.2763 8.35138 11.9386 8.21165C11.601 8.07192 11.2391 8 10.8736 8C10.5081 8 10.1462 8.07192 9.80858 8.21165C9.47093 8.35138 9.16414 8.55618 8.90571 8.81437C8.64728 9.07255 8.44229 9.37907 8.30243 9.7164C8.16257 10.0537 8.09059 10.4153 8.09059 10.7804C8.09059 11.1456 8.16257 11.5071 8.30243 11.8444C8.44229 12.1818 8.64728 12.4883 8.90571 12.7465L16.1225 19.9547L8.92797 27.1482C8.64581 27.4002 8.41808 27.707 8.25871 28.05C8.09934 28.3929 8.01168 28.7647 8.00109 29.1427C7.9905 29.5207 8.05721 29.8968 8.19713 30.2481C8.33706 30.5994 8.54725 30.9185 8.81486 31.1859C9.08247 31.4533 9.40187 31.6633 9.75351 31.803C10.1051 31.9428 10.4816 32.0095 10.8599 31.9989C11.2383 31.9883 11.6104 31.9008 11.9537 31.7415C12.2969 31.5823 12.6041 31.3548 12.8563 31.0729L20.0564 23.885L27.2491 31.0729C27.771 31.5943 28.4789 31.8873 29.217 31.8873C29.9551 31.8873 30.663 31.5943 31.1849 31.0729C31.7068 30.5515 32 29.8442 32 29.1068C32 28.3694 31.7068 27.6622 31.1849 27.1408L23.9903 19.9547Z" fill="#5EE064"/>
</g>
<defs>
<clipPath id="clip0_4_16">
<rect width="40" height="40" fill="white"/>
</clipPath>
</defs>
</svg>
