<svg width="40" height="40" viewBox="0 0 40 40" fill="none" xmlns="http://www.w3.org/2000/svg">
<g clip-path="url(#clip0_16_10)">
<path d="M32.7876 22.5333L32.1956 22.192C32.4621 20.7419 32.4621 19.2554 32.1956 17.8053L32.7876 17.464C33.2428 17.2014 33.6419 16.8516 33.962 16.4347C34.282 16.0179 34.5169 15.5421 34.6531 15.0344C34.7893 14.5268 34.8242 13.9973 34.7557 13.4762C34.6873 12.9551 34.5169 12.4526 34.2542 11.9973C33.9916 11.5421 33.6418 11.143 33.225 10.8229C32.8081 10.5029 32.3323 10.268 31.8247 10.1318C31.317 9.99562 30.7875 9.96075 30.2664 10.0292C29.7453 10.0976 29.2428 10.268 28.7876 10.5307L28.1942 10.8733C27.0736 9.91589 25.7858 9.17366 24.3956 8.684V8C24.3956 6.93913 23.9741 5.92172 23.224 5.17157C22.4738 4.42143 21.4564 4 20.3956 4C19.3347 4 18.3173 4.42143 17.5671 5.17157C16.817 5.92172 16.3956 6.93913 16.3956 8V8.684C15.0054 9.17542 13.718 9.91947 12.5982 10.8787L12.0022 10.5333C11.0828 10.0029 9.99034 9.85943 8.96514 10.1345C7.93994 10.4095 7.066 11.0806 6.53557 12C6.00513 12.9194 5.86166 14.0119 6.13671 15.0371C6.41177 16.0623 7.08281 16.9362 8.00223 17.4667L8.59423 17.808C8.32771 19.2581 8.32771 20.7446 8.59423 22.1947L8.00223 22.536C7.08281 23.0664 6.41177 23.9404 6.13671 24.9656C5.86166 25.9908 6.00513 27.0833 6.53557 28.0027C7.066 28.9221 7.93994 29.5931 8.96514 29.8682C9.99034 30.1432 11.0828 29.9998 12.0022 29.4693L12.5956 29.1267C13.7166 30.0842 15.0049 30.8265 16.3956 31.316V32C16.3956 33.0609 16.817 34.0783 17.5671 34.8284C18.3173 35.5786 19.3347 36 20.3956 36C21.4564 36 22.4738 35.5786 23.224 34.8284C23.9741 34.0783 24.3956 33.0609 24.3956 32V31.316C25.7857 30.8246 27.0731 30.0805 28.1929 29.1213L28.7889 29.4653C29.7083 29.9958 30.8008 30.1392 31.826 29.8642C32.8512 29.5891 33.7251 28.9181 34.2556 27.9987C34.786 27.0793 34.9295 25.9868 34.6544 24.9616C34.3794 23.9364 33.7083 23.0624 32.7889 22.532L32.7876 22.5333ZM29.3902 17.4987C29.8418 19.1348 29.8418 20.8626 29.3902 22.4987C29.3114 22.7834 29.3294 23.0863 29.4414 23.3597C29.5533 23.6332 29.753 23.8617 30.0089 24.0093L31.4542 24.844C31.7606 25.0208 31.9843 25.3121 32.0759 25.6538C32.1676 25.9955 32.1197 26.3596 31.9429 26.666C31.7661 26.9724 31.4748 27.196 31.1331 27.2877C30.7914 27.3793 30.4273 27.3315 30.1209 27.1547L28.6729 26.3173C28.4168 26.169 28.1185 26.1101 27.8252 26.1499C27.5319 26.1897 27.2602 26.326 27.0529 26.5373C25.8661 27.7489 24.371 28.6133 22.7289 29.0373C22.4423 29.111 22.1883 29.278 22.007 29.5119C21.8257 29.7458 21.7274 30.0334 21.7276 30.3293V32C21.7276 32.3536 21.5871 32.6928 21.337 32.9428C21.087 33.1929 20.7479 33.3333 20.3942 33.3333C20.0406 33.3333 19.7015 33.1929 19.4514 32.9428C19.2014 32.6928 19.0609 32.3536 19.0609 32V30.3307C19.061 30.0347 18.9627 29.7471 18.7814 29.5132C18.6001 29.2793 18.3462 29.1124 18.0596 29.0387C16.4174 28.6129 14.9227 27.7466 13.7369 26.5333C13.5296 26.322 13.2579 26.1857 12.9646 26.1459C12.6713 26.1061 12.373 26.165 12.1169 26.3133L10.6716 27.1493C10.5199 27.2383 10.3521 27.2963 10.1779 27.3201C10.0036 27.344 9.82644 27.3331 9.65644 27.2881C9.48644 27.2432 9.32701 27.1651 9.18733 27.0582C9.04764 26.9514 8.93047 26.8181 8.84255 26.6658C8.75462 26.5135 8.69769 26.3453 8.67503 26.1709C8.65236 25.9966 8.66441 25.8194 8.71049 25.6497C8.75656 25.48 8.83574 25.3211 8.94348 25.1822C9.05121 25.0432 9.18537 24.9269 9.33823 24.84L10.7836 24.0053C11.0395 23.8577 11.2391 23.6292 11.3511 23.3557C11.4631 23.0823 11.4811 22.7794 11.4022 22.4947C10.9507 20.8586 10.9507 19.1308 11.4022 17.4947C11.4797 17.2105 11.4608 16.9087 11.3487 16.6364C11.2365 16.3641 11.0373 16.1365 10.7822 15.9893L9.3369 15.1547C9.03049 14.9779 8.80686 14.6866 8.71522 14.3449C8.62357 14.0032 8.67142 13.6391 8.84823 13.3327C9.02504 13.0263 9.31633 12.8026 9.65803 12.711C9.99972 12.6193 10.3638 12.6672 10.6702 12.844L12.1182 13.6813C12.3737 13.83 12.6713 13.8896 12.9643 13.8508C13.2573 13.8119 13.529 13.6768 13.7369 13.4667C14.9237 12.2551 16.4188 11.3907 18.0609 10.9667C18.3484 10.8928 18.603 10.725 18.7844 10.49C18.9658 10.255 19.0636 9.96619 19.0622 9.66933V8C19.0622 7.64638 19.2027 7.30724 19.4528 7.05719C19.7028 6.80714 20.0419 6.66667 20.3956 6.66667C20.7492 6.66667 21.0883 6.80714 21.3384 7.05719C21.5884 7.30724 21.7289 7.64638 21.7289 8V9.66933C21.7288 9.96528 21.8271 10.2529 22.0084 10.4868C22.1896 10.7207 22.4436 10.8876 22.7302 10.9613C24.3729 11.3869 25.8681 12.2532 27.0542 13.4667C27.2615 13.678 27.5333 13.8143 27.8266 13.8541C28.1199 13.8939 28.4181 13.835 28.6742 13.6867L30.1196 12.8507C30.2713 12.7617 30.439 12.7037 30.6133 12.6799C30.7875 12.656 30.9647 12.6669 31.1347 12.7119C31.3047 12.7568 31.4641 12.8349 31.6038 12.9418C31.7435 13.0486 31.8607 13.1819 31.9486 13.3342C32.0365 13.4865 32.0934 13.6547 32.1161 13.8291C32.1388 14.0034 32.1267 14.1806 32.0806 14.3503C32.0346 14.52 31.9554 14.6789 31.8477 14.8178C31.7399 14.9568 31.6058 15.0731 31.4529 15.16L30.0076 15.9947C29.753 16.1423 29.5543 16.37 29.4427 16.6423C29.331 16.9145 29.3126 17.2161 29.3902 17.5V17.4987Z" fill="#9ADC7B"/>
<path d="M20.3333 15C19.2785 15 18.2474 15.3128 17.3703 15.8988C16.4932 16.4849 15.8096 17.3178 15.406 18.2924C15.0023 19.2669 14.8967 20.3392 15.1025 21.3738C15.3083 22.4084 15.8162 23.3587 16.5621 24.1046C17.308 24.8505 18.2583 25.3584 19.2929 25.5642C20.3274 25.77 21.3998 25.6644 22.3743 25.2607C23.3489 24.857 24.1818 24.1734 24.7678 23.2964C25.3539 22.4193 25.6667 21.3882 25.6667 20.3333C25.6667 18.9188 25.1048 17.5623 24.1046 16.5621C23.1044 15.5619 21.7478 15 20.3333 15ZM20.3333 23C19.8059 23 19.2903 22.8436 18.8518 22.5506C18.4133 22.2576 18.0715 21.8411 17.8697 21.3538C17.6678 20.8666 17.615 20.3304 17.7179 19.8131C17.8208 19.2958 18.0748 18.8207 18.4477 18.4477C18.8207 18.0748 19.2958 17.8208 19.8131 17.7179C20.3304 17.615 20.8666 17.6678 21.3538 17.8697C21.8411 18.0715 22.2576 18.4133 22.5506 18.8518C22.8436 19.2903 23 19.8059 23 20.3333C23 21.0406 22.7191 21.7189 22.219 22.219C21.7189 22.719 21.0406 23 20.3333 23Z" fill="#9ADC7B"/>
</g>
<defs>
<clipPath id="clip0_16_10">
<rect width="40" height="40" fill="white"/>
</clipPath>
</defs>
</svg>
